<svg class="svg-icon" style="width: 1em; height: 1em;vertical-align: middle;fill: currentColor;overflow: hidden;" viewBox="0 0 1024 1024" version="1.1" xmlns="http://www.w3.org/2000/svg"><path d="M512 56.888889C341.333333 56.888889 193.422222 153.6 113.777778 290.133333V113.777778H56.888889v341.333333h341.333333V398.222222H136.533333C182.044444 238.933333 335.644444 119.466667 512 119.466667c216.177778 0 392.533333 176.355556 392.533333 392.533333s-176.355556 392.533333-392.533333 392.533333c-130.844444 0-244.622222-62.577778-318.577778-159.288889l-45.511111 45.511112C233.244444 898.844444 364.088889 967.111111 512 967.111111c250.311111 0 455.111111-204.8 455.111111-455.111111s-204.8-455.111111-455.111111-455.111111z" fill="#333333" /><path d="M512 591.644444V284.444444H455.111111v341.333334l199.111111 113.777778 28.444445-51.2z" fill="#333333" /></svg>